Coordinates
version=1
nRows=29
nColumns=24
inDegrees=yes

Units are S.I. units (second, meters, Newtons, ...)
Angles are in degrees.

endheader
time	pelvis_tilt	pelvis_list	pelvis_rotation	pelvis_tx	pelvis_ty	pelvis_tz	hip_flexion_r	hip_adduction_r	hip_rotation_r	knee_angle_r	ankle_angle_r	subtalar_angle_r	mtp_angle_r	hip_flexion_l	hip_adduction_l	hip_rotation_l	knee_angle_l	ankle_angle_l	subtalar_angle_l	mtp_angle_l	lumbar_extension	lumbar_bending	lumbar_rotation
      3.73000000	     -8.72028919	      7.75863250	      2.76815924	     -0.77088725	     -0.01553659	      0.69649317	     40.43463847	    -11.71523711	     -2.00639020	    -61.16869313	    -14.34424478	    -17.97678574	     21.81710274	      3.65216574	     11.96658733	     12.90622595	    -12.22791293	     14.19196011	    -10.11670416	    -23.23037842	      5.56679774	     -7.89230199	    -10.19274666
      3.73500000	     -8.72818425	      7.68366295	      2.78341517	     -0.76430075	     -0.01602887	      0.69639874	     40.82041603	    -11.53164924	     -1.83686126	    -59.98658819	    -14.12035006	    -17.85716575	     21.64667915	      2.99993720	     11.82631159	     13.05120343	    -11.79243807	     14.35654161	    -10.02849445	    -23.20510084	      5.51613416	     -7.74552779	    -10.27834445
      3.74000000	     -8.51962218	      7.61665707	      2.78174751	     -0.75773355	     -0.01633838	      0.69634464	     40.92356801	    -11.35926493	     -1.68754134	    -58.74315292	    -13.78711909	    -17.61967457	     21.29257607	      2.11340055	     11.67512322	     13.10758836	    -11.34166981	     14.51546100	     -9.89174506	    -23.14911338	      5.21779851	     -7.60460675	    -10.46088354
      3.74500000	     -8.39098141	      7.56181783	      2.77437919	     -0.75118237	     -0.01679909	      0.69631180	     41.08932972	    -11.18245027	     -1.49165513	    -57.45055361	    -13.45859112	    -17.38202705	     20.93918330	      1.34119861	     11.53616806	     13.13020089	    -10.94228654	     14.66431385	     -9.68847076	    -23.02593067	      5.00620071	     -7.46657743	    -10.60330862
      3.75000000	     -8.29154622	      7.50586382	      2.76123297	     -0.74461350	     -0.01735908	      0.69629908	     41.25521279	    -11.00440733	     -1.28425128	    -56.10561729	    -13.14093120	    -17.11003962	     20.66383014	      0.61386662	     11.39356285	     13.09409146	    -10.56349282	     14.83227122	     -9.44333084	    -22.84021343	      4.83063325	     -7.33380599	    -10.72838016
      3.75500000	     -8.27651847	      7.43868067	      2.74591408	     -0.73800559	     -0.01805368	      0.69625670	     41.48149845	    -10.82141058	     -1.06953681	    -54.70600722	    -12.88406354	    -16.83167659	     20.50831967	     -0.01515951	     11.24547841	     13.06146381	    -10.20080174	     15.00358712	     -9.21300156	    -22.66869112	      4.75848737	     -7.18425677	    -10.82687775
      3.76000000	     -8.18013279	      7.37373827	      2.72538910	     -0.73144172	     -0.01870282	      0.69625481	     41.57510085	    -10.63919157	     -0.84693303	    -53.24588033	    -12.54554184	    -16.49564042	     20.33275771	     -0.70321905	     11.09148066	     12.94586831	     -9.88473073	     15.19469989	     -8.86969209	    -22.43310153	      4.58393135	     -7.03643624	    -10.95509869
      3.76500000	     -8.00951004	      7.32550877	      2.70705878	     -0.72498708	     -0.01932808	      0.69633314	     41.56292332	    -10.46962417	     -0.62738545	    -51.75108072	    -12.19156592	    -16.22300778	     19.88987534	     -1.42239531	     10.94281686	     12.68769019	     -9.64351826	     15.38210984	     -8.32238673	    -21.87051256	      4.30440288	     -6.91224567	    -11.13648068
      3.77000000	     -7.95681220	      7.25152534	      2.70096214	     -0.71841679	     -0.02009877	      0.69632120	     41.63126881	    -10.30290828	     -0.42650079	    -50.20057565	    -11.80070008	    -15.84944147	     19.61054339	     -2.01291431	     10.78187885	     12.45368789	     -9.41461691	     15.51582595	     -7.83683861	    -21.21248877	      4.17674301	     -6.75256536	    -11.28249833
      3.77500000	     -8.03186370	      7.16254434	      2.71291565	     -0.71179956	     -0.02106511	      0.69638198	     41.81069666	    -10.12662583	     -0.25739604	    -48.64053844	    -11.33398311	    -15.49547111	     18.86293168	     -2.41876040	     10.59347414	     11.93417053	     -9.20183321	     14.95342547	     -7.28663780	    -18.03279171	      4.19843927	     -6.59131554	    -11.40423084
      3.78000000	     -7.96900259	      7.09336150	      2.72906612	     -0.70522818	     -0.02185829	      0.69627694	     41.78964650	    -10.01027173	     -0.10066871	    -46.98126591	    -11.00224174	    -15.19312452	     18.97817320	     -2.99782332	     10.45291403	     11.79276292	     -9.03269533	     15.15101792	     -6.86530042	    -17.78190265	      4.05324811	     -6.42451923	    -11.56883932
      3.78500000	     -7.94436781	      6.96133722	      2.71619599	     -0.69859010	     -0.02268818	      0.69629662	     41.77226556	     -9.80129844	      0.04557828	    -45.28897303	    -10.70758323	    -14.98468909	     18.70141030	     -3.48246605	     10.23196937	     11.36816050	     -8.93398130	     15.31924992	     -6.16575975	    -16.93091767	      3.96804866	     -6.19327729	    -11.70697356
      3.79000000	     -8.07450981	      6.91074137	      2.79721410	     -0.69195407	     -0.02373160	      0.69605125	     41.90697812	     -9.75562574	      0.19730937	    -43.60940237	    -10.31126281	    -14.54169329	     18.75347605	     -3.81967012	     10.13892709	     11.35901376	     -8.84914003	     15.45526420	     -5.89918686	    -16.72478162	      4.04109253	     -6.04120372	    -11.91590510
      3.79500000	     -8.00908807	      6.83789126	      2.93603058	     -0.68536633	     -0.02457035	      0.69584647	     41.77793050	     -9.74469082	      0.21304059	    -41.91350836	     -9.80075960	    -14.07584433	     18.61992980	     -4.29376973	      9.98697724	     11.02784132	     -8.88210829	     15.68829758	     -5.13561038	    -16.08220639	      3.87715362	     -5.88401470	    -12.21603520
      3.80000000	     -8.07213340	      6.70649922	      3.05902947	     -0.67862266	     -0.02552512	      0.69561684	     41.75213860	     -9.66456995	      0.24261117	    -40.20259415	     -9.34768496	    -13.59304542	     18.47581902	     -4.62847310	      9.78557279	     10.74885506	     -8.91994412	     15.83910620	     -4.51433370	    -15.34997557	      3.89022953	     -5.64931151	    -12.47178885
      3.80500000	     -8.11837036	      6.50146604	      3.08501990	     -0.67177104	     -0.02647249	      0.69566419	     41.68688405	     -9.41073427	      0.35728216	    -38.49460181	     -8.98292498	    -13.28354440	     17.94994397	     -4.95036761	      9.47621360	     10.13814584	     -8.95158380	     15.67043547	     -3.68194905	    -13.14367842	      3.91312011	     -5.33714427	    -12.59308720
      3.81000000	     -8.27421587	      6.44880817	      3.34663676	     -0.66501408	     -0.02754405	      0.69513917	     41.72961712	     -9.52533416	      0.32320867	    -36.85403655	     -8.49370471	    -12.59661987	     18.17258473	     -5.17687083	      9.38831304	     10.21139795	     -9.04174614	     15.69957709	     -3.41890281	    -12.75531154	      4.01595662	     -5.18695858	    -12.99192526
      3.81500000	     -8.36932541	      6.30738261	      3.57378727	     -0.65815873	     -0.02851354	      0.69474232	     41.66814029	     -9.51587273	      0.29655702	    -35.22365207	     -8.09915227	    -11.97977286	     18.27632111	     -5.44007437	      9.17971066	     10.12157634	     -9.17292782	     15.80367447	     -2.86809001	    -12.14743545	      4.07536428	     -4.93951980	    -13.33190286
      3.82000000	     -8.48607424	      6.14809927	      3.82060683	     -0.65121128	     -0.02953499	      0.69431483	     41.60862528	     -9.50095076	      0.25285928	    -33.64872009	     -7.65744497	    -11.33380718	     18.38575640	     -5.65433380	      8.95884702	     10.03624387	     -9.36144683	     15.90740703	     -2.36573044	    -11.56231839	      4.17333390	     -4.67141641	    -13.67873270
      3.82500000	     -8.53763665	      5.85796822	      3.97040092	     -0.64408521	     -0.03045109	      0.69416775	     41.44242948	     -9.26169688	      0.27882638	    -32.09696383	     -7.36027616	    -10.85967500	     18.25639141	     -5.90796511	      8.55167261	      9.50590434	     -9.51487399	     15.59021254	     -1.54140412	     -9.01994600	      4.24214637	     -4.26275003	    -13.91225709
      3.83000000	     -8.72783104	      5.74203558	      4.32393195	     -0.63704545	     -0.03154921	      0.69355131	     41.44992614	     -9.36634019	      0.21978367	    -30.71505960	     -6.90365902	     -9.99206961	     18.51685617	     -6.05007023	      8.38806580	      9.74794001	     -9.72507378	     15.60599481	     -1.28425210	     -8.70385218	      4.43057412	     -4.04864583	    -14.33122085
      3.83500000	     -8.86090308	      5.54586076	      4.64752964	     -0.62987236	     -0.03255206	      0.69301894	     41.36508929	     -9.36179200	      0.16907936	    -29.39289013	     -6.54041238	     -9.21576250	     18.73627087	     -6.22856026	      8.12068659	      9.83607803	     -9.96882766	     15.67178764	     -0.85381813	     -8.32305131	      4.58453999	     -3.74394909	    -14.71780315
      3.84000000	     -8.98089444	      5.31894577	      4.96600953	     -0.62260629	     -0.03351873	      0.69251361	     41.25513927	     -9.31825977	      0.12763232	    -28.17077683	     -6.24438612	     -8.45695755	     18.94095088	     -6.40958241	      7.81149574	      9.89364702	    -10.22813957	     15.72463561	     -0.37884705	     -7.91444651	      4.74217651	     -3.40586645	    -15.09326684
      3.84500000	     -9.08367646	      5.06845258	      5.30395140	     -0.61523959	     -0.03447575	      0.69201805	     41.10925802	     -9.25367046	      0.09388610	    -27.05766912	     -5.94577275	     -7.76055597	     19.14127702	     -6.58804574	      7.46942204	      9.94470126	    -10.52625023	     15.76297384	      0.10093169	     -7.45313595	      4.89731137	     -3.04560544	    -15.46198080
      3.85000000	     -9.18667241	      4.79749501	      5.62526596	     -0.60776572	     -0.03540637	      0.69152827	     40.96295715	     -9.15561641	      0.07728422	    -26.06872904	     -5.74129904	     -7.10330757	     19.30462221	     -6.76870003	      7.10348781	     10.01354915	    -10.81571345	     15.76061204	      0.54734898	     -7.01692859	      5.07783226	     -2.65632781	    -15.81236263
      3.85500000	     -9.33482016	      4.51468656	      5.88897165	     -0.60008043	     -0.03640532	      0.69116059	     40.86667598	     -8.99417105	      0.11046203	    -25.20887769	     -5.54566114	     -6.57232257	     19.42454782	     -6.92157490	      6.73329390	     10.12307704	    -11.08024639	     15.72107902	      0.85017057	     -6.78627919	      5.33248755	     -2.25940662	    -16.03975627
      3.86000000	     -9.33142872	      4.22497325	      6.28953838	     -0.59252140	     -0.03717754	      0.69068139	     40.57940868	     -8.90982632	      0.01562069	    -24.47295457	     -5.41059159	     -6.10977840	     19.50485997	     -7.15834136	      6.31324252	     10.18436298	    -11.46157317	     15.67810741	      1.41556586	     -6.23962006	      5.40013773	     -1.86656058	    -16.48803279
      3.86500000	     -9.28831320	      3.84617065	      6.50056372	     -0.58464552	     -0.03792845	      0.69045393	     40.25765402	     -8.59687426	      0.03021746	    -23.84989912	     -5.38593357	     -5.80374364	     19.44573485	     -7.48186550	      5.78840590	     10.06009191	    -11.71631090	     15.32602385	      1.90294096	     -4.78515083	      5.48169876	     -1.34420566	    -16.66066446
      3.87000000	     -9.47261541	      3.56231581	      6.83802201	     -0.57676077	     -0.03888295	      0.69001936	     40.20214168	     -8.47724690	     -0.04264028	    -23.42121134	     -5.43086514	     -5.53025623	     19.44032023	     -7.54427102	      5.42059866	     10.31982872	    -12.07495511	     15.16233055	      2.09901858	     -4.63546149	      5.80679609	     -0.96064249	    -16.98331962
